# xmcd
#
# Track frame offsets:
#	150
#	16518
#	38877
#	59185
#	75167
#	90577
#	112687
#	129164
#	142859
#	160645
#	180102
#	197984
#	212357
#	228076
#	245272
#	266812
#	281520
#	297570
#	314441
#
# Disc length: 4374
#
# Revision: 2
# Processed by: cddbd v1.5.1PL0 Copyright (c) Steve Scherf et al.
# Submitted via: audiograbber 1.83.01
# Normalized: r1:DSETVAR1
#
DISCID=ef111413
DTITLE=Various Artist - MTV Dance 4
DYEAR=2001
DGENRE=pop
TTITLE0=Anastacia - Made for loving
TTITLE1=ATB - Hold u
TTITLE2=Backstreet boys - Drowning
TTITLE3=Bomfunk mc's - Super Electric
TTITLE4=Britney Spears - I'm a slave 4 you
TTITLE5=Cher - The music's no good
TTITLE6=Darude - Out of control
TTITLE7=DJ Tiesto - Urban train
TTITLE8=Enigma - Turn around
TTITLE9=Enrique Iglesias - Hero
TTITLE10=Galeon - So i begin
TTITLE11=Garbage - Androgny
TTITLE12=Lio - Rapture
TTITLE13=Marc Anthony - Tragedy
TTITLE14=Michael Jackson - Invincible
TTITLE15=Pink - Get the party started
TTITLE16=Scooter - I shot the DJ
TTITLE17=Spike - A moment of love
TTITLE18=Three amigos - 25 miles 2001
EXTD=
EXTT0=
EXTT1=
EXTT2=
EXTT3=
EXTT4=
EXTT5=
EXTT6=
EXTT7=
EXTT8=
EXTT9=
EXTT10=
EXTT11=
EXTT12=
EXTT13=
EXTT14=
EXTT15=
EXTT16=
EXTT17=
EXTT18=
PLAYORDER=
